<?xml version="1.0" encoding="utf-8"?>
<!-- Generator: Adobe Illustrator 26.2.1, SVG Export Plug-In . SVG Version: 6.00 Build 0)  -->
<svg version="1.1" id="Ebene_1" xmlns="http://www.w3.org/2000/svg" xmlns:xlink="http://www.w3.org/1999/xlink" x="0px" y="0px"
	 viewBox="0 0 1280 720" style="enable-background:new 0 0 1280 720;" xml:space="preserve">
<style type="text/css">
	.st0{fill:#191930;}
	.st1{fill:#FF931E;}
	.st2{fill:#FFFFFF;}
</style>
<rect class="st0" width="1280" height="720"/>
<g>
	<path class="st1" d="M157.41,296.43v49.56l0.24,47.61c0.16,17.74,0.65,29.5,1.46,35.28c0.81,5.78,1.99,9.52,3.54,11.23
		c1.54,1.71,4.52,3.17,8.91,4.39s15.22,2.16,32.47,2.81l1.95,1.46v12.21l-1.95,1.95c-41.34-1.3-64.7-1.95-70.07-1.95
		c-5.21,0-28.48,0.65-69.82,1.95l-1.95-1.95v-12.21l1.95-1.46c15.3-0.65,25.43-1.46,30.4-2.44c4.96-0.98,8.3-2.28,10.01-3.91
		c1.71-1.62,3.09-4.88,4.15-9.77c1.06-4.88,1.67-15.95,1.83-33.2l0.24-52V232.95l-0.49-47.61c-0.16-18.55-0.61-30.52-1.34-35.89
		s-1.87-8.95-3.42-10.74c-1.55-1.79-4.52-3.25-8.91-4.39c-4.39-1.14-15.22-2.03-32.47-2.69l-1.95-1.71v-12.21l1.95-1.71
		c69.01,0.98,109.29,1.46,120.85,1.46c38.73,0,78.45-0.49,119.14-1.46l1.95,1.71c-2.61,8.14-4.31,17.38-5.13,27.71
		c-0.82,10.34-1.71,24.94-2.69,43.82l-1.95,1.95h-11.47l-1.71-1.95c-0.33-1.14-1.06-7.4-2.2-18.8c-0.82-8.95-2.12-17.17-3.91-24.66
		c-16.93-5.7-40.28-8.54-70.07-8.54c-13.35,0-28.97,0.98-46.88,2.93c-1.79,12.7-2.69,43.62-2.69,92.77v42.24
		c20.67,0.33,34.75,0.49,42.24,0.49c13.83,0,25.71-0.53,35.64-1.59c9.93-1.06,15.87-2.08,17.82-3.05s3.46-2.81,4.52-5.49
		c1.06-2.69,2.08-8.58,3.05-17.7l1.46-13.18l1.71-1.95h12.45l1.95,2.2l-1.71,53.47c0,6.19,0.24,15.14,0.73,26.86
		c0.65,13.35,0.98,23.68,0.98,31.01l-2.2,1.95h-12.21l-1.71-1.95l-0.98-20.75c-0.49-8.14-1.3-14.08-2.44-17.82
		c-1.14-3.74-3.01-6.18-5.62-7.32c-2.61-1.14-8.38-2.2-17.33-3.17c-8.95-0.98-22.71-1.46-41.26-1.46
		C178.08,295.7,165.71,295.94,157.41,296.43z"/>
	<path class="st2" d="M359.04,339.98c0-81.5,56-128,120-128s120,46.5,120,128c0,80.5-56,127-120,127S359.04,420.48,359.04,339.98z
		 M556.54,339.98c0-56-31-93.5-77.5-93.5s-77.5,37.5-77.5,93.5c0,55.5,31,92.5,77.5,92.5S556.54,395.48,556.54,339.98z"/>
	<path class="st2" d="M665.04,132.98h51l46,140l16,53h2l15.5-53l46.5-140h51v328h-40v-164c0-32,5-88,7-116h-1.5l-18.5,64l-47,129
		h-30l-46-129l-19-64h-1c3,28,7,84,7,116v164h-39V132.98z"/>
	<path class="st2" d="M959.04,339.98c0-81.5,56-128,120-128s120,46.5,120,128c0,80.5-56,127-120,127S959.04,420.48,959.04,339.98z
		 M1156.54,339.98c0-56-31-93.5-77.5-93.5s-77.5,37.5-77.5,93.5c0,55.5,31,92.5,77.5,92.5S1156.54,395.48,1156.54,339.98z"/>
</g>
<path d="M1223,506H322c0,0-262,297-262,45"/>
</svg>
